<svg width="60" height="60" viewBox="0 0 60 60" fill="none" xmlns="http://www.w3.org/2000/svg">
<path d="M7.32373 8.75977V10.1885H8.31738V11.3271H7.32373V14.2275C7.32373 14.4424 7.36491 14.5964 7.44727 14.6895C7.52962 14.7826 7.68717 14.8291 7.91992 14.8291C8.0918 14.8291 8.24398 14.8166 8.37646 14.7915V15.9678C8.0721 16.0609 7.75879 16.1074 7.43652 16.1074C6.34798 16.1074 5.79297 15.5578 5.77148 14.4585V11.3271H4.92285V10.1885H5.77148V8.75977H7.32373ZM10.5968 10.8223C11.0086 10.3281 11.526 10.0811 12.149 10.0811C13.4094 10.0811 14.0486 10.8133 14.0665 12.2778V16H12.5143V12.3208C12.5143 11.9878 12.4426 11.7425 12.2994 11.585C12.1562 11.4238 11.9181 11.3433 11.5851 11.3433C11.1303 11.3433 10.8009 11.5187 10.5968 11.8696V16H9.04453V7.75H10.5968V10.8223ZM16.7756 16H15.218V10.1885H16.7756V16ZM15.1267 8.68457C15.1267 8.45182 15.2036 8.26025 15.3576 8.10986C15.5152 7.95947 15.7282 7.88428 15.9968 7.88428C16.2618 7.88428 16.473 7.95947 16.6306 8.10986C16.7881 8.26025 16.8669 8.45182 16.8669 8.68457C16.8669 8.9209 16.7863 9.11426 16.6252 9.26465C16.4676 9.41504 16.2582 9.49023 15.9968 9.49023C15.7354 9.49023 15.5241 9.41504 15.363 9.26465C15.2054 9.11426 15.1267 8.9209 15.1267 8.68457ZM21.2249 11.644C21.0136 11.6154 20.8274 11.6011 20.6663 11.6011C20.0791 11.6011 19.6941 11.7998 19.5115 12.1973V16H17.9593V10.1885H19.4256L19.4686 10.8813C19.7801 10.3478 20.2116 10.0811 20.763 10.0811C20.9349 10.0811 21.096 10.1043 21.2464 10.1509L21.2249 11.644ZM21.5277 13.0513C21.5277 12.1453 21.73 11.4238 22.1347 10.8867C22.5429 10.3496 23.0997 10.0811 23.8051 10.0811C24.3708 10.0811 24.8381 10.2923 25.2069 10.7148V7.75H26.7646V16H25.3627L25.2875 15.3823C24.9008 15.8657 24.4031 16.1074 23.7943 16.1074C23.1104 16.1074 22.5608 15.8389 22.1454 15.3018C21.7336 14.7611 21.5277 14.0109 21.5277 13.0513ZM23.08 13.1641C23.08 13.7083 23.1749 14.1255 23.3646 14.4155C23.5544 14.7056 23.8301 14.8506 24.1918 14.8506C24.6716 14.8506 25.01 14.6483 25.2069 14.2437V11.9502C25.0136 11.5456 24.6788 11.3433 24.2025 11.3433C23.4542 11.3433 23.08 11.9502 23.08 13.1641ZM35.7384 13.1479C35.7384 14.0431 35.5343 14.7611 35.1261 15.3018C34.7215 15.8389 34.1736 16.1074 33.4825 16.1074C32.8953 16.1074 32.4208 15.9033 32.0592 15.4951V18.2344H30.5069V10.1885H31.9464L32.0001 10.7578C32.3761 10.3066 32.8666 10.0811 33.4718 10.0811C34.1879 10.0811 34.7447 10.346 35.1422 10.876C35.5396 11.4059 35.7384 12.1364 35.7384 13.0674V13.1479ZM34.1861 13.0352C34.1861 12.4945 34.0895 12.0773 33.8961 11.7837C33.7063 11.4901 33.4288 11.3433 33.0636 11.3433C32.5766 11.3433 32.2418 11.5295 32.0592 11.9019V14.2812C32.249 14.6644 32.5873 14.856 33.0743 14.856C33.8155 14.856 34.1861 14.249 34.1861 13.0352ZM39.9729 16C39.9012 15.8604 39.8493 15.6867 39.8171 15.479C39.4411 15.8979 38.9523 16.1074 38.3508 16.1074C37.7814 16.1074 37.3088 15.9427 36.9328 15.6133C36.5604 15.2839 36.3742 14.8685 36.3742 14.3672C36.3742 13.7513 36.6016 13.2786 37.0563 12.9492C37.5147 12.6198 38.1753 12.4533 39.0383 12.4497H39.7526V12.1167C39.7526 11.8481 39.6828 11.6333 39.5432 11.4722C39.4071 11.311 39.1905 11.2305 38.8933 11.2305C38.6319 11.2305 38.426 11.2931 38.2756 11.4185C38.1288 11.5438 38.0554 11.7157 38.0554 11.9341H36.5031C36.5031 11.5975 36.607 11.286 36.8146 10.9995C37.0223 10.7131 37.3159 10.4893 37.6955 10.3281C38.0751 10.1634 38.5012 10.0811 38.9738 10.0811C39.69 10.0811 40.2575 10.2619 40.6765 10.6235C41.099 10.9816 41.3103 11.4865 41.3103 12.1382V14.6572C41.3138 15.2087 41.3908 15.6258 41.5412 15.9087V16H39.9729ZM38.6892 14.9204C38.9183 14.9204 39.1296 14.8703 39.3229 14.77C39.5163 14.6662 39.6595 14.5283 39.7526 14.3564V13.3574H39.1726C38.3955 13.3574 37.982 13.626 37.9318 14.1631L37.9265 14.2544C37.9265 14.4478 37.9945 14.6071 38.1306 14.7324C38.2666 14.8577 38.4528 14.9204 38.6892 14.9204ZM45.6683 11.644C45.457 11.6154 45.2708 11.6011 45.1097 11.6011C44.5224 11.6011 44.1375 11.7998 43.9549 12.1973V16H42.4026V10.1885H43.8689L43.9119 10.8813C44.2234 10.3478 44.6549 10.0811 45.2063 10.0811C45.3782 10.0811 45.5394 10.1043 45.6897 10.1509L45.6683 11.644ZM48.4472 8.75977V10.1885H49.4408V11.3271H48.4472V14.2275C48.4472 14.4424 48.4883 14.5964 48.5707 14.6895C48.6531 14.7826 48.8106 14.8291 49.0434 14.8291C49.2152 14.8291 49.3674 14.8166 49.4999 14.7915V15.9678C49.1955 16.0609 48.8822 16.1074 48.56 16.1074C47.4714 16.1074 46.9164 15.5578 46.8949 14.4585V11.3271H46.0463V10.1885H46.8949V8.75977H48.4472ZM52.3755 13.8032L53.4497 10.1885H55.1147L52.7783 16.9023L52.6494 17.2085C52.3021 17.9676 51.7292 18.3472 50.9307 18.3472C50.7051 18.3472 50.4759 18.3132 50.2432 18.2451V17.0688L50.4795 17.0742C50.7731 17.0742 50.9915 17.0295 51.1348 16.9399C51.2816 16.8504 51.3962 16.7018 51.4785 16.4941L51.6611 16.0161L49.6255 10.1885H51.2959L52.3755 13.8032Z" fill="#ACC4FF"/>
<path d="M11.6119 52H10.0543V43.75H11.6119V52ZM12.5539 49.0405C12.5539 48.464 12.6649 47.9502 12.8869 47.499C13.1089 47.0479 13.4276 46.6987 13.843 46.4517C14.2619 46.2046 14.7471 46.0811 15.2985 46.0811C16.0827 46.0811 16.7219 46.321 17.216 46.8008C17.7137 47.2806 17.9912 47.9323 18.0485 48.7559L18.0593 49.1533C18.0593 50.0449 17.8104 50.7611 17.3127 51.3018C16.815 51.8389 16.1472 52.1074 15.3093 52.1074C14.4714 52.1074 13.8018 51.8389 13.3005 51.3018C12.8028 50.7646 12.5539 50.0342 12.5539 49.1104V49.0405ZM14.1062 49.1533C14.1062 49.7048 14.21 50.1273 14.4177 50.4209C14.6254 50.7109 14.9226 50.856 15.3093 50.856C15.6853 50.856 15.9789 50.7127 16.1901 50.4263C16.4014 50.1362 16.507 49.6743 16.507 49.0405C16.507 48.4998 16.4014 48.0809 16.1901 47.7837C15.9789 47.4865 15.6817 47.3379 15.2985 47.3379C14.919 47.3379 14.6254 47.4865 14.4177 47.7837C14.21 48.0773 14.1062 48.5339 14.1062 49.1533ZM18.6897 49.0513C18.6897 48.1597 18.901 47.4417 19.3235 46.8975C19.7496 46.3532 20.3226 46.0811 21.0423 46.0811C21.6797 46.0811 22.1756 46.2995 22.5301 46.7363L22.5945 46.1885H24.0018V51.8066C24.0018 52.3151 23.8854 52.7573 23.6526 53.1333C23.4235 53.5093 23.0994 53.7957 22.6805 53.9927C22.2615 54.1896 21.771 54.2881 21.2088 54.2881C20.7827 54.2881 20.3673 54.2021 19.9627 54.0303C19.5581 53.862 19.2519 53.6436 19.0442 53.375L19.7317 52.4297C20.1185 52.863 20.5875 53.0796 21.139 53.0796C21.5507 53.0796 21.8712 52.9686 22.1004 52.7466C22.3296 52.5282 22.4441 52.2166 22.4441 51.812V51.5005C22.0861 51.9051 21.6152 52.1074 21.0315 52.1074C20.3333 52.1074 19.7675 51.8353 19.3343 51.291C18.9046 50.7432 18.6897 50.0181 18.6897 49.1157V49.0513ZM20.242 49.1641C20.242 49.6904 20.3476 50.104 20.5589 50.4048C20.7702 50.702 21.0602 50.8506 21.429 50.8506C21.9017 50.8506 22.24 50.6733 22.4441 50.3188V47.875C22.2365 47.5205 21.9017 47.3433 21.4397 47.3433C21.0674 47.3433 20.7737 47.4954 20.5589 47.7998C20.3476 48.1042 20.242 48.5589 20.242 49.1641ZM26.7377 52H25.1801V46.1885H26.7377V52ZM25.0888 44.6846C25.0888 44.4518 25.1658 44.2603 25.3197 44.1099C25.4773 43.9595 25.6903 43.8843 25.9589 43.8843C26.2239 43.8843 26.4351 43.9595 26.5927 44.1099C26.7502 44.2603 26.829 44.4518 26.829 44.6846C26.829 44.9209 26.7484 45.1143 26.5873 45.2646C26.4298 45.415 26.2203 45.4902 25.9589 45.4902C25.6975 45.4902 25.4862 45.415 25.3251 45.2646C25.1675 45.1143 25.0888 44.9209 25.0888 44.6846ZM31.0688 50.394C31.0688 50.2043 30.974 50.0557 30.7842 49.9482C30.598 49.8372 30.2972 49.7388 29.8818 49.6528C28.4997 49.3628 27.8086 48.7756 27.8086 47.8911C27.8086 47.3755 28.0216 46.9458 28.4478 46.6021C28.8774 46.2547 29.4378 46.0811 30.1289 46.0811C30.8665 46.0811 31.4556 46.2547 31.896 46.6021C32.34 46.9494 32.562 47.4006 32.562 47.9556H31.0098C31.0098 47.7336 30.9382 47.5509 30.7949 47.4077C30.6517 47.2609 30.4279 47.1875 30.1235 47.1875C29.8621 47.1875 29.6598 47.2466 29.5166 47.3647C29.3734 47.4829 29.3018 47.6333 29.3018 47.8159C29.3018 47.9878 29.3823 48.1274 29.5435 48.2349C29.7082 48.3387 29.9839 48.43 30.3706 48.5088C30.7573 48.584 31.0832 48.6699 31.3481 48.7666C32.1681 49.0674 32.5781 49.5884 32.5781 50.3296C32.5781 50.8595 32.3507 51.2892 31.896 51.6187C31.4412 51.9445 30.854 52.1074 30.1343 52.1074C29.6473 52.1074 29.214 52.0215 28.8345 51.8496C28.4585 51.6742 28.1631 51.436 27.9482 51.1353C27.7334 50.8309 27.626 50.5033 27.626 50.1523H29.0977C29.112 50.4281 29.214 50.6393 29.4038 50.7861C29.5936 50.9329 29.8478 51.0063 30.1665 51.0063C30.4637 51.0063 30.6875 50.9508 30.8379 50.8398C30.9919 50.7253 31.0688 50.5767 31.0688 50.394ZM35.3409 44.7598V46.1885H36.3346V47.3271H35.3409V50.2275C35.3409 50.4424 35.3821 50.5964 35.4645 50.6895C35.5468 50.7826 35.7044 50.8291 35.9371 50.8291C36.109 50.8291 36.2612 50.8166 36.3937 50.7915V51.9678C36.0893 52.0609 35.776 52.1074 35.4537 52.1074C34.3652 52.1074 33.8102 51.5578 33.7887 50.4585V47.3271H32.94V46.1885H33.7887V44.7598H35.3409ZM38.7375 52H37.1799V46.1885H38.7375V52ZM37.0886 44.6846C37.0886 44.4518 37.1656 44.2603 37.3195 44.1099C37.4771 43.9595 37.6901 43.8843 37.9587 43.8843C38.2237 43.8843 38.4349 43.9595 38.5925 44.1099C38.75 44.2603 38.8288 44.4518 38.8288 44.6846C38.8288 44.9209 38.7482 45.1143 38.5871 45.2646C38.4296 45.415 38.2201 45.4902 37.9587 45.4902C37.6973 45.4902 37.486 45.415 37.3249 45.2646C37.1673 45.1143 37.0886 44.9209 37.0886 44.6846ZM42.3382 50.856C42.6246 50.856 42.8574 50.7772 43.0364 50.6196C43.2155 50.4621 43.3086 50.2526 43.3157 49.9912H44.7713C44.7677 50.3851 44.6603 50.7467 44.449 51.0762C44.2378 51.402 43.9477 51.6562 43.5789 51.8389C43.2137 52.0179 42.809 52.1074 42.365 52.1074C41.5343 52.1074 40.879 51.8442 40.3992 51.3179C39.9194 50.7879 39.6795 50.0575 39.6795 49.1265V49.0244C39.6795 48.1292 39.9176 47.4149 40.3938 46.8813C40.8701 46.3478 41.5236 46.0811 42.3543 46.0811C43.0812 46.0811 43.6631 46.2887 44.0999 46.7041C44.5403 47.1159 44.7641 47.6655 44.7713 48.353H43.3157C43.3086 48.0522 43.2155 47.8088 43.0364 47.6226C42.8574 47.4328 42.6211 47.3379 42.3274 47.3379C41.9658 47.3379 41.6919 47.4704 41.5057 47.7354C41.323 47.9967 41.2317 48.4229 41.2317 49.0137V49.1748C41.2317 49.7728 41.323 50.2025 41.5057 50.4639C41.6883 50.7253 41.9658 50.856 42.3382 50.856ZM48.705 50.394C48.705 50.2043 48.6101 50.0557 48.4203 49.9482C48.2341 49.8372 47.9333 49.7388 47.518 49.6528C46.1358 49.3628 45.4447 48.7756 45.4447 47.8911C45.4447 47.3755 45.6578 46.9458 46.0839 46.6021C46.5136 46.2547 47.074 46.0811 47.765 46.0811C48.5027 46.0811 49.0917 46.2547 49.5321 46.6021C49.9761 46.9494 50.1981 47.4006 50.1981 47.9556H48.6459C48.6459 47.7336 48.5743 47.5509 48.4311 47.4077C48.2878 47.2609 48.064 47.1875 47.7597 47.1875C47.4983 47.1875 47.296 47.2466 47.1527 47.3647C47.0095 47.4829 46.9379 47.6333 46.9379 47.8159C46.9379 47.9878 47.0185 48.1274 47.1796 48.2349C47.3443 48.3387 47.62 48.43 48.0067 48.5088C48.3935 48.584 48.7193 48.6699 48.9843 48.7666C49.8043 49.0674 50.2143 49.5884 50.2143 50.3296C50.2143 50.8595 49.9869 51.2892 49.5321 51.6187C49.0774 51.9445 48.4901 52.1074 47.7704 52.1074C47.2834 52.1074 46.8502 52.0215 46.4706 51.8496C46.0946 51.6742 45.7992 51.436 45.5844 51.1353C45.3695 50.8309 45.2621 50.5033 45.2621 50.1523H46.7338C46.7481 50.4281 46.8502 50.6393 47.0399 50.7861C47.2297 50.9329 47.484 51.0063 47.8026 51.0063C48.0998 51.0063 48.3236 50.9508 48.474 50.8398C48.628 50.7253 48.705 50.5767 48.705 50.394Z" fill="#ACC4FF"/>
<path d="M15.7207 28.6406H17.2246C17.9408 28.6406 18.4714 28.4616 18.8164 28.1035C19.1615 27.7454 19.334 27.2702 19.334 26.6777C19.334 26.1048 19.1615 25.6589 18.8164 25.3398C18.4779 25.0208 18.0091 24.8613 17.4102 24.8613C16.8698 24.8613 16.4173 25.0111 16.0527 25.3105C15.6882 25.6035 15.5059 25.9876 15.5059 26.4629H12.6836C12.6836 25.7207 12.8822 25.0566 13.2793 24.4707C13.6829 23.8783 14.2428 23.416 14.959 23.084C15.6816 22.752 16.4759 22.5859 17.3418 22.5859C18.8457 22.5859 20.0241 22.9473 20.877 23.6699C21.7298 24.3861 22.1562 25.3757 22.1562 26.6387C22.1562 27.2897 21.9577 27.8887 21.5605 28.4355C21.1634 28.9824 20.6426 29.4023 19.998 29.6953C20.7988 29.9818 21.3945 30.4115 21.7852 30.9844C22.1823 31.5573 22.3809 32.2344 22.3809 33.0156C22.3809 34.2786 21.9186 35.291 20.9941 36.0527C20.0762 36.8145 18.8587 37.1953 17.3418 37.1953C15.9225 37.1953 14.7604 36.821 13.8555 36.0723C12.957 35.3236 12.5078 34.334 12.5078 33.1035H15.3301C15.3301 33.6374 15.5286 34.0736 15.9258 34.4121C16.3294 34.7507 16.8242 34.9199 17.4102 34.9199C18.0807 34.9199 18.6048 34.7441 18.9824 34.3926C19.3665 34.0345 19.5586 33.5625 19.5586 32.9766C19.5586 31.5573 18.7773 30.8477 17.2148 30.8477H15.7207V28.6406ZM28.0664 31.9902V37H25.1367V22.7812H30.6836C31.7513 22.7812 32.6888 22.9766 33.4961 23.3672C34.3099 23.7578 34.9349 24.3145 35.3711 25.0371C35.8073 25.7533 36.0254 26.5703 36.0254 27.4883C36.0254 28.8815 35.5469 29.9818 34.5898 30.7891C33.6393 31.5898 32.321 31.9902 30.6348 31.9902H28.0664ZM28.0664 29.6172H30.6836C31.4583 29.6172 32.0475 29.4349 32.4512 29.0703C32.8613 28.7057 33.0664 28.1849 33.0664 27.5078C33.0664 26.8112 32.8613 26.248 32.4512 25.8184C32.041 25.3887 31.4746 25.1673 30.752 25.1543H28.0664V29.6172ZM41.4766 34.6465H47.6973V37H38.5469V22.7812H41.4766V34.6465Z" fill="white"/>
<rect x="0.5" y="0.5" width="59" height="59" rx="1.5" stroke="#ACC4FF"/>
</svg>
