<svg width="199" height="80" viewBox="0 0 199 80" fill="none" xmlns="http://www.w3.org/2000/svg">
<g opacity="0.25">
<path fill-rule="evenodd" clip-rule="evenodd" d="M31.5776 42.3281L18.0309 79.3281C17.9115 79.6544 18.153 80 18.5004 80H131.523C131.677 80 131.82 79.9332 131.912 79.8098C132.912 78.477 138.767 70.402 138.767 64C138.767 57.6597 136.306 56.2418 135.842 56.0308C135.793 56.0086 135.74 56 135.686 56H110.434C110.102 56 109.862 55.6821 109.953 55.3627L111.667 49.3627C111.729 49.148 111.925 49 112.148 49H195.928C196.128 49 196.309 48.8808 196.388 48.6969L198.959 42.6969C199.1 42.367 198.858 42 198.499 42H95.9779C95.8468 42 95.7248 42.0476 95.6335 42.1416C94.6468 43.1568 88.7742 49.4735 88.7742 56C88.7742 62.2172 90.2968 63.6756 90.6848 63.9463C90.7413 63.9857 90.8095 64 90.8785 64H117.107C117.439 64 117.679 64.3179 117.588 64.6373L115.874 70.6373C115.813 70.852 115.616 71 115.393 71H44.6222C44.2799 71 44.0388 70.6639 44.1485 70.3397L51.213 49.4647C51.2817 49.2617 51.4722 49.125 51.6866 49.125H60.0563C60.3977 49.125 60.6387 49.4596 60.5305 49.7834L54.9995 66.3416C54.8913 66.6654 55.1323 67 55.4737 67H76.4251C76.6304 67 76.8139 66.8769 76.8885 66.6856C77.6818 64.6528 82.0615 53.3166 82.7751 49C83.4463 44.9395 81.794 42.7058 81.3002 42.143C81.2163 42.0473 81.0951 42 80.9678 42H32.0471C31.8373 42 31.6498 42.131 31.5776 42.3281ZM141.092 79.3257L149.644 56.3258C149.717 56.1299 149.904 56 150.112 56H193.037C193.386 56 193.628 56.3487 193.505 56.6755L190.88 63.6755C190.807 63.8707 190.621 64 190.412 64H169.13C168.911 64 168.718 64.1421 168.652 64.3509L163.872 79.6491C163.807 79.8579 163.614 80 163.395 80H141.561C141.212 80 140.971 79.6524 141.092 79.3257Z" fill="#ACC4FF"/>
</g>
<path fill-rule="evenodd" clip-rule="evenodd" d="M13.5776 0.328096L0.0309179 37.3281C-0.0885376 37.6544 0.152989 38 0.500437 38H113.523C113.677 38 113.82 37.9332 113.912 37.8098C114.912 36.477 120.767 28.402 120.767 22C120.767 15.6597 118.306 14.2418 117.842 14.0308C117.793 14.0086 117.74 14 117.686 14H92.4341C92.1019 14 91.8621 13.6821 91.9533 13.3627L93.6673 7.36266C93.7287 7.148 93.9249 7 94.1481 7H177.928C178.128 7 178.309 6.8808 178.388 6.69695L180.959 0.696948C181.1 0.367015 180.858 0 180.499 0H77.9779C77.8468 0 77.7248 0.0476348 77.6335 0.141619C76.6468 1.15683 70.7742 7.47353 70.7742 14C70.7742 20.2172 72.2968 21.6756 72.6848 21.9463C72.7413 21.9857 72.8095 22 72.8785 22H99.1072C99.4394 22 99.6792 22.3179 99.588 22.6373L97.8739 28.6373C97.8126 28.852 97.6164 29 97.3932 29H26.6222C26.2799 29 26.0388 28.6639 26.1485 28.3397L33.213 7.46472C33.2817 7.26166 33.4722 7.125 33.6866 7.125H42.0563C42.3977 7.125 42.6387 7.45959 42.5305 7.78341L36.9995 24.3416C36.8913 24.6654 37.1323 25 37.4737 25H58.4251C58.6304 25 58.8139 24.8769 58.8885 24.6856C59.6818 22.6528 64.0615 11.3166 64.7751 7C65.4463 2.93945 63.794 0.705832 63.3002 0.142972C63.2163 0.0473305 63.0951 0 62.9678 0H14.0471C13.8373 0 13.6498 0.131038 13.5776 0.328096ZM123.092 37.3257L131.644 14.3258C131.717 14.1299 131.904 14 132.112 14H175.037C175.386 14 175.628 14.3487 175.505 14.6755L172.88 21.6755C172.807 21.8707 172.621 22 172.412 22H151.13C150.911 22 150.718 22.1421 150.652 22.3509L145.872 37.6491C145.807 37.8579 145.614 38 145.395 38H123.561C123.212 38 122.971 37.6524 123.092 37.3257Z" fill="white"/>
</svg>
