<svg width="24" height="24" viewBox="0 0 24 24" fill="none" xmlns="http://www.w3.org/2000/svg">
<path d="M2 2V4H4L7.6 11.59L6.25 14.04C6.09 14.32 6 14.65 6 15C6 16.1 6.9 17 8 17H20L19 15H8.42C8.28 15 8.17 14.89 8.17 14.75L8.2 14.63L9.1 13H16.55C17.3 13 17.96 12.59 18.3 11.97L21.88 5.48C21.9625 5.32739 22.004 5.15598 22.0005 4.98253C21.9969 4.80908 21.9485 4.63951 21.8598 4.49039C21.7711 4.34127 21.6453 4.2177 21.4946 4.13175C21.3439 4.04579 21.1735 4.0004 21 4H6.21L5.81016 3.14928C5.48047 2.44782 4.77519 2 4.00011 2H2Z" fill="white"/>
<circle cx="8.5" cy="20.5" r="1.5" fill="white"/>
<circle cx="17.5" cy="20.5" r="1.5" fill="white"/>
</svg>
