<svg width="24" height="24" viewBox="0 0 24 24" fill="none" xmlns="http://www.w3.org/2000/svg">
<path fill-rule="evenodd" clip-rule="evenodd" d="M5 2H19C20.1 2 21 2.9 21 4V18C21 19.1 20.1 20 19 20H15L12.7 22.29C12.31 22.68 11.68 22.68 11.29 22.29L9 20H5C3.9 20 3 19.1 3 18V4C3 3.46957 3.21071 2.96086 3.58579 2.58579C3.96086 2.21071 4.46957 2 5 2ZM6 16.1V17H18V16.1C18 14.1 14 13 12 13C10 13 6 14.1 6 16.1ZM12 11C13.6569 11 15 9.65685 15 8C15 6.34315 13.6569 5 12 5C10.3431 5 9 6.34315 9 8C9 9.65685 10.3431 11 12 11Z" fill="white"/>
</svg>
