<svg width="24" height="24" viewBox="0 0 24 24" fill="none" xmlns="http://www.w3.org/2000/svg">
<path d="M18.9921 16.0486C18.9587 15.8421 18.8293 15.6657 18.6355 15.5608L15.7685 13.8711L15.7449 13.8579C15.6247 13.7978 15.4919 13.7669 15.3575 13.7679C15.1173 13.7679 14.8879 13.8589 14.7287 14.0186L13.8825 14.8654C13.8463 14.8998 13.7283 14.9497 13.6925 14.9515C13.6827 14.9507 12.7079 14.8804 10.9133 13.0851C9.12185 11.2936 9.04585 10.3155 9.04525 10.3155C9.04625 10.2655 9.09545 10.1479 9.13045 10.1115L9.85205 9.38986C10.1062 9.13499 10.1824 8.71247 10.0316 8.38517L8.43804 5.38571C8.32224 5.14724 8.09724 5 7.84764 5C7.67104 5 7.50064 5.07322 7.36744 5.20626L5.40043 7.16942C5.21183 7.35708 5.04943 7.68517 5.01403 7.94925C4.99683 8.07548 4.64783 11.0887 8.77784 15.2205C12.2841 18.7273 15.0181 18.9998 15.7731 18.9998C15.865 19.001 15.9569 18.9963 16.0483 18.9856C16.3115 18.9504 16.6391 18.7884 16.8265 18.6005L18.7919 16.6347C18.9523 16.4735 19.0255 16.2604 18.9921 16.0486Z" fill="#ACC4FF"/>
</svg>
