<svg width="24" height="24" viewBox="0 0 24 24" fill="none" xmlns="http://www.w3.org/2000/svg">
<path d="M12 21C7.0293 21 3 16.9707 3 12C3 7.0293 7.0293 3 12 3C16.9707 3 21 7.0293 21 12C21 16.9707 16.9707 21 12 21ZM8.8473 13.17L8.859 13.1637L9.642 15.7467C9.7428 16.0266 9.8814 16.077 10.0497 16.0536C10.2189 16.0311 10.308 15.9402 10.4187 15.834L11.4879 14.8008L13.7829 16.5C14.2023 16.7313 14.5038 16.6116 14.6082 16.1112L16.0995 9.0714C16.2642 8.4162 15.9762 8.1534 15.4677 8.3622L6.708 11.7462C6.1104 11.9856 6.114 12.3204 6.6 12.4689L8.8473 13.17Z" fill="#ACC4FF"/>
</svg>
