<svg width="24" height="24" viewBox="0 0 24 24" fill="none" xmlns="http://www.w3.org/2000/svg">
<path d="M3.00361 21L4.22041 16.5288C3.41864 15.1544 2.9974 13.5912 3.00001 12C3.00001 7.0293 7.02931 3 12 3C16.9707 3 21 7.0293 21 12C21 16.9707 16.9707 21 12 21C10.4095 21.0026 8.847 20.5816 7.47301 19.7805L3.00361 21ZM8.75191 7.7772C8.63568 7.78441 8.52212 7.81502 8.41801 7.8672C8.32038 7.92248 8.23126 7.9916 8.15341 8.0724C8.04541 8.1741 7.98421 8.2623 7.91851 8.3478C7.58588 8.78069 7.40696 9.31207 7.41001 9.858C7.41181 10.299 7.52701 10.7283 7.70701 11.1297C8.07511 11.9415 8.68081 12.801 9.48091 13.5975C9.67351 13.7892 9.86161 13.9818 10.0641 14.1609C11.0572 15.0352 12.2405 15.6657 13.5201 16.0023L14.0322 16.0806C14.1987 16.0896 14.3652 16.077 14.5326 16.0689C14.7947 16.0554 15.0507 15.9844 15.2823 15.861C15.4002 15.8003 15.5152 15.7342 15.627 15.663C15.627 15.663 15.6657 15.6378 15.7395 15.582C15.861 15.492 15.9357 15.4281 16.0365 15.3228C16.1112 15.2454 16.176 15.1545 16.2255 15.051C16.2957 14.9043 16.3659 14.6244 16.3947 14.3913C16.4163 14.2131 16.41 14.1159 16.4073 14.0556C16.4037 13.9593 16.3236 13.8594 16.2363 13.8171L15.7125 13.5822C15.7125 13.5822 14.9295 13.2411 14.4516 13.0233C14.4012 13.0013 14.3472 12.9888 14.2923 12.9864C14.2307 12.9801 14.1685 12.987 14.1098 13.0067C14.0512 13.0264 13.9974 13.0585 13.9521 13.1007V13.0989C13.9476 13.0989 13.8873 13.1502 13.2366 13.9386C13.1993 13.9888 13.1478 14.0267 13.0888 14.0475C13.0298 14.0684 12.966 14.0712 12.9054 14.0556C12.8468 14.0399 12.7893 14.0201 12.7335 13.9962C12.6219 13.9494 12.5832 13.9314 12.5067 13.8981L12.5022 13.8963C11.9873 13.6715 11.5106 13.3679 11.0892 12.9963C10.9758 12.8973 10.8705 12.7893 10.7625 12.6849C10.4084 12.3458 10.0999 11.9622 9.84451 11.5437L9.79141 11.4582C9.75327 11.4007 9.72243 11.3388 9.69961 11.2737C9.66541 11.1414 9.75451 11.0352 9.75451 11.0352C9.75451 11.0352 9.97321 10.7958 10.0749 10.6662C10.1596 10.5585 10.2386 10.4464 10.3116 10.3305C10.4178 10.1595 10.4511 9.984 10.3953 9.8481C10.1433 9.2325 9.88231 8.6196 9.61411 8.0112C9.56101 7.8906 9.40351 7.8042 9.26041 7.7871C9.21181 7.7817 9.16321 7.7763 9.11461 7.7727C8.99374 7.76669 8.87263 7.76789 8.75191 7.7763V7.7772Z" fill="#ACC4FF"/>
</svg>
